<svg xmlns="http://www.w3.org/2000/svg" viewBox="0 0 1957.5 292.39"><defs><style>.cls-1{fill:#ffcb06;}</style></defs><title>Asset 9</title><g id="Layer_2" data-name="Layer 2"><g id="Layer_1-2" data-name="Layer 1"><path class="cls-1" d="M1923.44,0c-6.66,0-13.6,5.22-20.81,5.22-6.7,0-13.65-5.22-20.81-5.22-6.74,0-13.69,5.22-20.82,5.22-6.77,0-13.71-5.22-20.81-5.22-6.79,0-13.73,5.22-20.82,5.22-6.81,0-13.75-5.22-20.82-5.22-6.82,0-13.76,5.22-20.82,5.22C1770.9,5.22,1764,0,1756.91,0c-6.84,0-13.78,5.22-20.82,5.22-6.85,0-13.79-5.22-20.82-5.22-6.86,0-13.8,5.22-20.82,5.22-6.86,0-13.8-5.22-20.82-5.22s-13.81,5.22-20.82,5.22S1639,0,1632,0s-13.82,5.22-20.82,5.22S1597.37,0,1590.38,0s-13.83,5.22-20.82,5.22S1555.73,0,1548.74,0s-13.83,5.22-20.82,5.22S1514.09,0,1507.11,0s-13.84,5.22-20.82,5.22S1472.45,0,1465.48,0s-13.85,5.22-20.82,5.22S1430.81,0,1423.84,0,1410,5.22,1403,5.22,1389.17,0,1382.2,0s-13.85,5.22-20.82,5.22S1347.53,0,1340.57,0s-13.86,5.22-20.82,5.22S1305.89,0,1298.93,0s-13.86,5.22-20.82,5.22S1264.25,0,1257.29,0s-13.86,5.22-20.82,5.22S1222.61,0,1215.66,0s-13.87,5.22-20.82,5.22S1181,0,1174,0s-13.87,5.22-20.82,5.22S1139.34,0,1132.39,0s-13.87,5.22-20.82,5.22S1097.7,0,1090.76,0s-13.88,5.22-20.82,5.22S1056.06,0,1049.12,0s-13.88,5.22-20.82,5.22S1014.43,0,1007.49,0s-13.88,5.22-20.81,5.22S972.8,0,965.87,0,952,5.22,945.05,5.22,931.17,0,924.24,0s-13.88,5.22-20.81,5.22S889.54,0,882.62,0,868.73,5.22,861.8,5.22,847.91,0,841,0,827.1,5.22,820.18,5.22,806.29,0,799.37,0s-13.89,5.22-20.81,5.22S764.66,0,757.75,0s-13.89,5.22-20.81,5.22S723,0,716.13,0s-13.9,5.22-20.81,5.22S681.42,0,674.52,0s-13.9,5.22-20.81,5.22S639.8,0,632.9,0,619,5.22,612.08,5.22,598.17,0,591.27,0s-13.92,5.22-20.82,5.22S556.53,0,549.64,0s-13.92,5.22-20.82,5.22S514.9,0,508,0s-13.93,5.22-20.81,5.22S473.26,0,466.38,0s-13.94,5.22-20.81,5.22S431.62,0,424.75,0,410.8,5.22,403.94,5.22,390,0,383.13,0c-7,0-14,5.22-20.81,5.22-7,0-14-5.22-20.81-5.22-7,0-14,5.22-20.81,5.22-7,0-14-5.22-20.81-5.22-7.05,0-14,5.22-20.81,5.22C272,5.22,265.07,0,258.27,0c-7.08,0-14,5.22-20.81,5.22-7.1,0-14-5.22-20.81-5.22-7.13,0-14.07,5.22-20.81,5.22C188.68,5.22,181.74,0,175,0c-7.21,0-14.15,5.22-20.81,5.22C146.94,5.22,140,0,133.41,0,126,0,119.08,5.22,112.6,5.22,105,5.22,98.07,0,91.78,0,83.73,0,76.77,5.22,71,5.22,57.39,5.22,60.57,0,50.16,0S39.75,5.22,29.35,5.22,18.94,0,8.54,0A19.37,19.37,0,0,0,0,1.71V292.39H1957.5V1.68c-4.24,1.53-8.66,3.54-13.24,3.54-6.59,0-13.53-5.22-20.81-5.22"/></g></g></svg>