<svg xmlns="http://www.w3.org/2000/svg" viewBox="0 0 60.77 46.13"><defs><style>.cls-1{fill:#ffcb06;}</style></defs><title>Asset 5</title><g id="Layer_2" data-name="Layer 2"><g id="Layer_1-2" data-name="Layer 1"><polygon class="cls-1" points="28.27 14.16 0 34.12 8.48 46.13 53.75 14.16 28.27 14.16"/><polygon class="cls-1" points="48.27 0 47.54 0 47.54 4.18 45.37 4.18 45.37 0 41.65 0 41.65 4.18 39.48 4.18 39.48 0 35.76 0 35.76 4.18 33.59 4.18 33.59 0 29.87 0 29.87 4.18 27.7 4.18 27.7 0 23.98 0 23.98 4.18 21.81 4.18 21.81 0 18.09 0 18.09 4.18 15.92 4.18 15.92 0 12.21 0 12.21 4.18 10.03 4.18 10.03 0 6.32 0 6.32 4.18 4.14 4.18 4.14 0 0.61 0 0.61 11.98 56.74 11.98 48.27 0"/><polygon class="cls-1" points="58.41 31.98 58.41 35.8 56.24 35.8 56.24 31.98 52.52 31.98 52.52 35.8 50.35 35.8 50.35 31.98 46.63 31.98 46.63 35.8 44.46 35.8 44.46 31.98 40.75 31.98 40.75 35.8 38.57 35.8 38.57 31.98 34.86 31.98 34.86 35.8 32.68 35.8 32.68 31.98 32.28 31.98 12.37 46.05 60.77 46.05 60.77 31.98 58.41 31.98"/></g></g></svg>