<svg xmlns="http://www.w3.org/2000/svg" viewBox="0 0 80.71 33.32"><defs><style>.cls-1{fill:#ffcb06;}</style></defs><title>Asset 3</title><g id="Layer_2" data-name="Layer 2"><g id="Layer_1-2" data-name="Layer 1"><path class="cls-1" d="M80.71,33.32V4.51A4.51,4.51,0,0,0,76.2,0H71.37a4.51,4.51,0,0,0-4.51,4.51V33.32Z"/><path class="cls-1" d="M57.9,3.12H17.49a8.27,8.27,0,0,1,.12,1.39v7.64H57.9a4.51,4.51,0,0,0,4.51-4.51h0A4.51,4.51,0,0,0,57.9,3.12"/><path class="cls-1" d="M6.92,10.05A2.42,2.42,0,1,1,9.34,7.64a2.42,2.42,0,0,1-2.42,2.42M9.34,0H4.51A4.51,4.51,0,0,0,0,4.51V33.32H13.85V4.51A4.51,4.51,0,0,0,9.34,0"/></g></g></svg>