<svg xmlns="http://www.w3.org/2000/svg" viewBox="0 0 76.45 44.09"><defs><style>.cls-1{fill:#ffcb06;}</style></defs><title>Asset 6</title><g id="Layer_2" data-name="Layer 2"><g id="Layer_1-2" data-name="Layer 1"><polygon class="cls-1" points="0 0 0 44.09 11.31 44.09 11.31 3.56 65.14 3.56 65.14 44.09 76.45 44.09 76.45 0 0 0"/><path class="cls-1" d="M51.17,27.35a13,13,0,1,1-13-13,13,13,0,0,1,13,13M14.89,15.18h12a16.73,16.73,0,0,0-2.93,3.59h-9V29.66h6.82a16.6,16.6,0,0,0,32.89,0h7V18.77H52.36a16.74,16.74,0,0,0-2.93-3.59H61.56v-8H14.89Z"/><path class="cls-1" d="M43.35,25.56H39.94V19.41a1.79,1.79,0,1,0-3.58,0v7.94a1.79,1.79,0,0,0,1.79,1.79h5.2a1.79,1.79,0,0,0,0-3.59"/></g></g></svg>